<?xml version="1.0" standalone="no"?>
<!DOCTYPE svg PUBLIC "-//W3C//DTD SVG 20010904//EN"
 "http://www.w3.org/TR/2001/REC-SVG-20010904/DTD/svg10.dtd">
<svg version="1.0" xmlns="http://www.w3.org/2000/svg"
 width="1216.000000pt" height="331.000000pt" viewBox="0 0 1216.000000 331.000000"
 preserveAspectRatio="xMidYMid meet">
<metadata>
Created by potrace 1.16, written by Peter Selinger 2001-2019
</metadata>
<g transform="translate(0.000000,331.000000) scale(0.100000,-0.100000)"
fill="#000000" stroke="none">
<path d="M20 2410 l0 -370 245 0 245 0 0 370 0 370 -245 0 -245 0 0 -370z"/>
<path d="M1530 2611 c0 -145 2 -171 15 -171 11 0 15 11 15 38 0 28 7 45 26 62
16 16 28 21 32 14 49 -76 80 -114 95 -114 13 0 5 16 -34 71 l-52 71 49 49 c28
28 42 49 33 49 -8 0 -44 -29 -79 -65 l-65 -66 -5 112 c-3 77 -9 114 -17 117
-10 3 -13 -35 -13 -167z"/>
<path d="M3250 2710 c0 -38 -3 -70 -6 -70 -3 0 -17 9 -31 20 -31 24 -85 26
-118 4 -32 -21 -57 -87 -49 -130 3 -19 20 -48 36 -64 37 -37 101 -42 141 -10
25 20 25 20 30 0 3 -11 11 -20 19 -20 10 0 12 31 10 157 -3 166 -5 183 -22
183 -6 0 -10 -29 -10 -70z m-50 -65 c59 -31 69 -107 21 -156 -46 -46 -107 -33
-136 28 -21 44 -12 85 27 118 34 29 48 31 88 10z"/>
<path d="M923 2758 c-11 -13 -133 -301 -133 -312 0 -3 6 -6 14 -6 7 0 23 23
34 50 l21 50 74 0 75 0 21 -50 c12 -28 28 -50 36 -50 8 0 15 1 15 3 0 9 -131
312 -138 319 -5 5 -14 3 -19 -4z"/>
<path d="M11615 2735 c22 -19 45 -34 51 -35 5 0 23 14 39 30 16 17 33 30 39
30 6 0 -2 -12 -17 -27 l-27 -27 28 -30 27 -30 -37 27 c-22 16 -39 23 -43 17
-3 -6 -16 -8 -28 -5 -16 4 -30 -2 -47 -20 l-24 -26 89 3 90 3 0 60 0 60 -90 3
-90 2 40 -35z"/>
<path d="M1892 2603 c2 -114 6 -157 16 -161 9 -3 12 13 12 56 l0 59 75 5 c81
5 104 18 125 68 9 22 9 37 0 64 -17 53 -46 66 -145 66 l-86 0 3 -157z m185
114 c26 -26 22 -85 -7 -109 -18 -15 -36 -18 -84 -16 l-61 3 -3 59 c-5 87 -3
89 73 84 44 -3 71 -10 82 -21z"/>
<path d="M1292 2664 c-32 -22 -52 -67 -52 -115 0 -33 6 -47 34 -75 93 -93 237
13 186 136 -7 17 -24 40 -38 50 -30 24 -98 26 -130 4z m126 -40 c33 -38 30
-97 -7 -135 -38 -38 -74 -38 -112 0 -41 42 -41 101 1 143 26 25 36 29 63 24
18 -3 42 -17 55 -32z"/>
<path d="M2353 2668 c-13 -6 -23 -15 -23 -21 0 -5 10 -6 23 -2 80 26 127 9
127 -44 0 -25 -2 -26 -66 -26 -57 0 -68 -3 -85 -24 -26 -31 -24 -57 6 -86 30
-31 77 -33 122 -6 31 19 31 19 36 0 3 -10 11 -19 17 -19 8 0 10 8 6 23 -3 12
-6 55 -6 95 0 64 -3 76 -25 97 -27 27 -90 33 -132 13z"/>
<path d="M2833 2670 c-13 -5 -23 -14 -23 -21 0 -7 7 -8 18 -3 9 4 36 9 58 12
35 3 44 0 58 -19 9 -13 16 -33 16 -44 0 -20 -5 -21 -57 -17 -48 3 -63 0 -85
-18 -80 -62 19 -153 113 -104 29 14 32 14 44 -3 7 -10 15 -16 18 -13 2 3 1 50
-3 104 -6 87 -9 101 -29 117 -25 20 -89 25 -128 9z"/>
<path d="M6086 2235 c-10 -10 -26 -18 -36 -19 -32 -2 -110 -74 -110 -101 0
-13 -5 -27 -12 -31 -7 -4 -8 -3 -4 4 5 8 2 10 -8 6 -9 -3 -16 -13 -16 -21 0
-8 4 -11 10 -8 6 4 7 -2 1 -17 -5 -13 -6 -53 -2 -89 4 -40 3 -76 -4 -92 -14
-35 -45 -67 -64 -67 -14 -1 -13 -2 2 -11 9 -6 31 -8 47 -5 18 2 30 0 30 -7 0
-6 7 -18 15 -27 14 -15 12 -17 -17 -16 -18 1 -37 7 -41 14 -4 6 -15 12 -22 12
-8 0 -15 5 -15 10 0 6 -5 10 -11 10 -8 0 -7 -6 2 -17 12 -15 12 -16 -3 -10
-10 3 -20 2 -23 -4 -4 -5 -10 -7 -15 -4 -4 3 -14 -3 -21 -13 -12 -15 -12 -16
2 -4 14 10 18 10 22 -2 4 -9 -3 -16 -18 -20 -17 -4 -23 -12 -20 -26 3 -14 -2
-20 -13 -20 -35 0 12 -20 48 -20 26 0 31 -3 20 -10 -13 -8 -12 -10 3 -10 9 0
17 4 17 9 0 6 8 9 18 9 9 -1 38 2 65 6 48 7 64 -4 30 -23 -20 -10 -24 -11 -54
-11 -15 0 -19 -5 -15 -15 6 -17 -19 -21 -29 -5 -3 5 -21 9 -40 7 -18 -1 -31
-5 -29 -9 2 -3 -2 -9 -8 -11 -7 -3 -3 -6 9 -6 12 -1 23 3 25 8 2 4 12 5 23 0
19 -7 19 -8 -3 -8 -13 -1 -21 -5 -18 -10 7 -11 -76 -21 -88 -10 -5 4 -20 -1
-34 -11 -14 -11 -31 -20 -38 -20 -8 0 -14 -5 -14 -11 0 -6 -6 -9 -14 -6 -10 4
-13 -2 -12 -24 1 -17 -2 -33 -6 -35 -5 -3 -4 -12 2 -19 6 -8 10 -29 8 -47 -3
-29 -5 -30 -13 -13 -5 11 -15 25 -22 30 -8 6 -12 21 -11 34 2 13 -2 26 -8 28
-12 4 -35 -50 -56 -129 l-12 -48 39 -40 c21 -22 40 -38 42 -36 2 2 19 -12 38
-30 47 -44 201 -119 300 -145 64 -17 111 -22 232 -23 83 0 155 2 159 7 4 4 2
13 -5 20 -9 9 -14 9 -21 -3 -8 -13 -10 -12 -10 3 0 9 4 17 10 17 5 0 7 7 4 15
-4 8 -12 15 -20 15 -8 0 -14 7 -14 15 0 14 11 19 38 16 6 -1 12 2 12 6 1 4 14
24 31 43 19 22 27 28 23 15 -4 -11 -14 -26 -22 -33 -11 -8 -13 -15 -5 -23 7
-7 15 -2 27 15 15 24 17 25 36 9 19 -16 19 -17 -2 -34 -14 -13 -29 -16 -49
-12 -24 5 -28 3 -23 -11 3 -9 11 -13 16 -10 6 4 7 -2 3 -16 -6 -19 -4 -22 10
-16 10 3 23 2 30 -4 16 -13 78 7 68 23 -4 6 2 8 15 5 28 -8 162 59 232 116 53
42 56 46 52 85 -3 32 -7 38 -16 28 -7 -7 -15 -19 -19 -27 -3 -8 -6 2 -6 23 -1
28 -5 37 -18 38 -15 0 -15 2 2 9 11 5 14 9 6 9 -11 1 -11 4 -1 16 11 13 9 15
-11 13 -20 -3 -24 2 -24 24 0 14 -3 30 -7 34 -5 4 -8 0 -8 -9 0 -9 -5 -19 -12
-23 -10 -7 -10 2 3 43 2 6 0 12 -6 13 -5 1 -22 11 -36 21 -20 14 -29 16 -39 6
-10 -10 -12 -8 -7 6 4 11 1 17 -9 17 -8 0 -12 5 -9 11 9 13 -47 8 -57 -6 -4
-6 -8 -2 -8 8 0 24 -19 21 -30 -5 -9 -21 -10 -21 -9 -3 2 42 -1 57 -13 53 -7
-3 -13 -19 -14 -36 -2 -61 -14 -45 -14 17 0 54 -2 62 -17 59 -22 -4 -30 -62
-12 -84 9 -11 9 -14 -1 -14 -7 0 -10 -7 -6 -16 3 -8 2 -13 -3 -10 -5 3 -11 -4
-14 -16 -4 -12 -9 -20 -12 -16 -3 3 -1 17 5 32 5 15 10 37 10 49 -1 21 -1 21
-14 4 -24 -31 -25 -4 -2 38 12 22 31 42 42 45 10 3 20 13 22 23 3 15 0 17 -17
8 -16 -9 -21 -7 -26 9 -4 11 -11 18 -16 14 -5 -3 -7 -10 -4 -15 4 -5 -1 -9
-10 -9 -11 0 -15 5 -11 15 6 17 -35 50 -44 35 -3 -5 -31 -6 -62 -3 -56 6 -57
6 -35 23 16 13 24 15 29 7 7 -11 12 -2 9 16 -1 5 8 6 19 2 11 -3 20 -2 20 4 0
15 -16 22 -60 24 -43 1 -47 5 -27 26 10 11 9 13 -3 9 -10 -3 -15 -17 -14 -42
1 -20 -4 -36 -10 -36 -6 0 -21 -3 -32 -6 -34 -9 -106 74 -86 99 12 14 5 57 -9
57 -5 0 -6 6 -3 13 9 23 31 16 26 -9 -5 -30 23 -44 82 -42 49 2 54 8 54 65 1
22 -6 26 -66 38 -33 7 -33 7 -15 27 10 11 37 31 60 45 24 14 43 29 43 34 0 5
16 17 35 26 34 16 38 16 73 -2 46 -24 59 -41 65 -81 3 -17 14 -50 25 -73 14
-29 20 -59 18 -106 0 -36 2 -65 7 -65 4 0 7 8 8 18 1 9 2 37 4 62 2 45 20 120
36 151 4 9 5 26 3 36 -4 15 2 23 26 33 17 7 29 15 26 17 -2 2 -18 -3 -34 -11
l-30 -16 -8 33 c-5 17 -8 48 -7 67 1 19 -1 25 -3 13 -5 -22 -6 -22 -34 7 -33
33 -68 45 -110 37 -24 -5 -29 -3 -32 16 -2 15 -11 23 -28 25 -14 1 -41 5 -61
8 -26 4 -40 1 -53 -11z m317 -876 c28 3 37 -3 47 -34 7 -20 16 -32 22 -29 6 4
9 1 6 -7 -3 -8 -13 -16 -24 -17 -10 -2 -23 -8 -28 -12 -5 -5 0 -7 11 -4 14 4
22 0 25 -14 4 -14 2 -19 -7 -16 -7 3 -29 -2 -50 -10 -21 -9 -48 -16 -61 -16
-22 0 -24 3 -18 27 4 15 17 36 28 46 20 17 20 18 2 12 -19 -6 -19 -5 -3 13 16
17 16 20 2 32 -9 7 -13 15 -10 18 2 3 11 -1 20 -8 16 -13 18 -8 16 35 -1 18 0
19 7 2 4 -10 11 -18 15 -18z"/>
<path d="M11640 2003 c-49 -17 -53 -82 -9 -141 17 -23 32 -42 34 -42 2 0 17
21 34 47 37 56 39 86 6 118 -24 25 -36 28 -65 18z"/>
<path d="M11605 1185 c-52 -51 -16 -145 54 -145 16 0 33 -4 36 -10 3 -5 14
-10 23 -10 12 0 13 3 5 11 -8 8 -6 20 8 43 27 43 24 73 -10 107 -38 37 -82 39
-116 4z"/>
<path d="M11587 392 c-24 -27 -23 -123 1 -145 22 -20 131 -24 150 -5 7 7 12
40 12 78 0 38 -5 71 -12 78 -7 7 -39 12 -73 12 -47 0 -66 -4 -78 -18z m134 -2
c15 -9 19 -22 19 -68 0 -32 -5 -63 -12 -70 -16 -16 -110 -16 -126 0 -16 16
-16 120 0 136 15 15 92 16 119 2z"/>
</g>
</svg>
